<?xml version="1.0" encoding="utf-8"?>
<svg width="1024px" height="1024px" viewBox="0 0 1024 1024" t="1569683368540" class="icon" version="1.1" p-id="9723" xmlns="http://www.w3.org/2000/svg">
  <defs/>
  <path d="M 899.1 869.6 L 846.1 564 L 864 564 C 878.4 564 890 552.4 890 538 L 890 346 C 890 331.6 878.4 320 864 320 L 618 320 L 618 138 C 618 123.6 606.4 112 592 112 L 432 112 C 417.6 112 406 123.6 406 138 L 406 320 L 160 320 C 145.6 320 134 331.6 134 346 L 134 538 C 134 552.4 145.6 564 160 564 L 177.9 564 L 124.9 869.6 C 124.6 871.1 124.5 872.6 124.5 874 C 124.5 888.4 136.1 900 150.5 900 L 873.5 900 C 875 900 876.5 899.9 877.9 899.6 C 892.1 897.2 901.6 883.7 899.1 869.6 Z M 151.055 337.055 L 423.056 337.056 L 424.259 129.056 L 599.741 130.259 L 600.944 338.259 L 872.944 338.259 L 871.741 545.741 L 151.055 546.944 L 151.055 337.055 Z M 652.747 881.741 L 652.747 674 C 652.747 669.6 649.147 666 644.747 666 L 642.472 666 C 638.072 666 634.472 669.6 634.472 674 L 634.472 881.741 L 385.918 881.741 L 385.918 674 C 385.918 669.6 382.318 666 377.918 666 L 375.643 666 C 371.243 666 367.643 669.6 367.643 674 L 367.643 881.741 L 142.636 881.741 L 196.159 562.78 L 828.945 562.78 L 883.671 881.741 L 652.747 881.741 Z" p-id="9724"/>
</svg>